<svg xmlns="http://www.w3.org/2000/svg" width="1505" height="230" viewBox="0 0 1505 230">
  <metadata><?xpacket begin="﻿" id="W5M0MpCehiHzreSzNTczkc9d"?>
<x:xmpmeta xmlns:x="adobe:ns:meta/" x:xmptk="Adobe XMP Core 5.6-c142 79.160924, 2017/07/13-01:06:39        ">
   <rdf:RDF xmlns:rdf="http://www.w3.org/1999/02/22-rdf-syntax-ns#">
      <rdf:Description rdf:about=""/>
   </rdf:RDF>
</x:xmpmeta>
                                                                                                    
                                                                                                    
                                                                                                    
                                                                                                    
                                                                                                    
                                                                                                    
                                                                                                    
                                                                                                    
                                                                                                    
                                                                                                    
                                                                                                    
                                                                                                    
                                                                                                    
                                                                                                    
                                                                                                    
                                                                                                    
                                                                                                    
                                                                                                    
                                                                                                    
                                                                                                    
                           
<?xpacket end="w"?></metadata>
<defs>
    <style>
      .cls-1, .cls-2 {
        fill: #571515;
        fill-rule: evenodd;
      }

      .cls-2 {
        stroke: #571515;
        stroke-width: 15px;
      }
    </style>
  </defs>
  <path id="Minesweeper" class="cls-1" d="M161.157,171V5h-50l-30,121.75L51.157,5h-51V171h32.25V57.75L63.157,171h34.5l31-113.75V171h32.5Zm46.748,0V48h-32.5V171h32.5Zm0-137.75V3h-32.5V33.25h32.5ZM334.152,171V85.75a46.249,46.249,0,0,0-3.125-17.625,37.8,37.8,0,0,0-8.5-12.875,34.449,34.449,0,0,0-12.875-7.875A48.87,48.87,0,0,0,293.4,44.75q-15,0-24.5,5.375A39.486,39.486,0,0,0,253.652,66V48h-31V171h32.5V100.5q0-28.248,25.25-28.25,11.5,0,16.25,5T301.4,96.5V171h32.75Zm45-73.5q1-12.75,8.125-19.875A23.064,23.064,0,0,1,404.149,70.5a27.074,27.074,0,0,1,9.25,1.625,22.4,22.4,0,0,1,8,5,24.889,24.889,0,0,1,5.625,8.5A34.25,34.25,0,0,1,429.4,97.5h-50.25ZM462.9,118q0-36.75-14.625-55T405.149,44.75a67.987,67.987,0,0,0-25.25,4.375A50.243,50.243,0,0,0,361.274,61.75,55.569,55.569,0,0,0,349.649,81.5a78.005,78.005,0,0,0-4,25.75q0,67,61.5,67,19.748,0,34-10.25t20-29.25h-33.5a16.408,16.408,0,0,1-7.875,10.125,27.2,27.2,0,0,1-14.125,3.625q-12,0-19.375-8.25T378.149,118H462.9ZM579.4,85.25q-1.254-20-13.875-30.25T526.147,44.75q-14,0-23.875,2.75a46.07,46.07,0,0,0-16.125,7.625,28.056,28.056,0,0,0-9,11.625,38.018,38.018,0,0,0-2.75,14.5,34.641,34.641,0,0,0,3.375,15.25q3.375,7,12.125,12.5a64.787,64.787,0,0,0,16,7.25q9.5,3,25,6.75a77.213,77.213,0,0,1,13.875,4.75,9.493,9.493,0,0,1,5.875,9.25,10.039,10.039,0,0,1-6.5,9.875,37.431,37.431,0,0,1-15.25,2.875q-12,0-18.75-4.75t-6.75-13.5H469.9q0.5,18.75,15.625,30.75t43.625,12q26.5,0,40.125-10.75t13.625-30q0-12-5.25-18.875t-15-10.875a151.6,151.6,0,0,0-16.75-5.125q-9.5-2.373-20-5.375-10-2.748-15-5.625a9.131,9.131,0,0,1-5-8.375,8.117,8.117,0,0,1,5-7.875Q515.9,69,525.147,69q11.25,0,16.5,3.625t6.5,12.625H579.4ZM718.646,171L753.9,48H720.4l-18.75,79L682.4,48h-33l-17,79-20-79h-34.25l35,123H646.4l19.5-71.5L685.4,171h33.25Zm66-73.5q1-12.75,8.125-19.875A23.064,23.064,0,0,1,809.644,70.5a27.078,27.078,0,0,1,9.25,1.625,22.405,22.405,0,0,1,8,5,24.889,24.889,0,0,1,5.625,8.5A34.273,34.273,0,0,1,834.894,97.5h-50.25Zm83.75,20.5q0-36.75-14.625-55T810.644,44.75a67.987,67.987,0,0,0-25.25,4.375A50.235,50.235,0,0,0,766.769,61.75,55.54,55.54,0,0,0,755.144,81.5a78.005,78.005,0,0,0-4,25.75q0,67,61.5,67,19.746,0,34-10.25t20-29.25h-33.5a16.408,16.408,0,0,1-7.875,10.125,27.2,27.2,0,0,1-14.125,3.625q-12,0-19.375-8.25T783.644,118h84.75Zm42-20.5q1-12.75,8.125-19.875A23.064,23.064,0,0,1,935.392,70.5a27.078,27.078,0,0,1,9.25,1.625,22.405,22.405,0,0,1,8,5,24.889,24.889,0,0,1,5.625,8.5A34.273,34.273,0,0,1,960.642,97.5h-50.25Zm83.75,20.5q0-36.75-14.625-55T936.392,44.75a67.987,67.987,0,0,0-25.25,4.375A50.235,50.235,0,0,0,892.517,61.75,55.54,55.54,0,0,0,880.892,81.5a78.005,78.005,0,0,0-4,25.75q0,67,61.5,67,19.746,0,34-10.25t20-29.25h-33.5a16.408,16.408,0,0,1-7.875,10.125,27.2,27.2,0,0,1-14.125,3.625q-12,0-19.375-8.25T909.392,118h84.75Zm42-11.5q0-15.75,7.87-25.5t19.63-9.75q12.24,0,20,10.375,7.74,10.377,7.75,26.875,0,38-28,38-27.255,0-27.25-40h0Zm1.25,122.75V155q13.74,19.254,36.5,19.25a47.687,47.687,0,0,0,21.37-4.625,44.673,44.673,0,0,0,15.88-13.125,60.575,60.575,0,0,0,9.87-20.125,91.67,91.67,0,0,0,3.38-25.625,89.432,89.432,0,0,0-4-27.75,63.253,63.253,0,0,0-11-20.75,46.715,46.715,0,0,0-16.88-13,50.919,50.919,0,0,0-21.37-4.5q-23.01,0-34.25,18.25l-0.25-15h-31.25V229.25h32ZM1166.89,97.5q0.99-12.75,8.12-19.875a23.075,23.075,0,0,1,16.88-7.125,27.1,27.1,0,0,1,9.25,1.625,22.44,22.44,0,0,1,8,5,24.793,24.793,0,0,1,5.62,8.5,34.179,34.179,0,0,1,2.38,11.875h-50.25Zm83.75,20.5q0-36.75-14.63-55t-43.12-18.25a67.98,67.98,0,0,0-25.25,4.375,50.287,50.287,0,0,0-18.63,12.625,55.559,55.559,0,0,0-11.62,19.75,77.953,77.953,0,0,0-4,25.75q0,67,61.5,67,19.74,0,34-10.25t20-29.25h-33.5a16.4,16.4,0,0,1-7.88,10.125,27.175,27.175,0,0,1-14.12,3.625q-12,0-19.38-8.25-7.365-8.25-8.12-22.25h84.75Zm43.75,53V107q0-29.748,29.75-29.75a54.656,54.656,0,0,1,9,.75V44.75h-4.25a93.278,93.278,0,0,0-9.75.5,34.528,34.528,0,0,0-9.38,2.375,36.39,36.39,0,0,0-9,5.375,39.713,39.713,0,0,0-8.37,9.75V48h-30.5V171h32.5Z"/>
  <path id="Shape_1_copy_3" data-name="Shape 1 copy 3" class="cls-2" d="M1363.45,171V7.452h68.27l10.53,20.382h55.3v83.493h-56.04L1430.5,87.753h-67.78"/>
</svg>
